<svg xmlns="http://www.w3.org/2000/svg" width="1200" height="700" viewBox="0 0 1200 700">
  <defs>
    <linearGradient id="bg" x1="0" y1="0" x2="1" y2="1">
      <stop offset="0" stop-color="#12233a"/>
      <stop offset="1" stop-color="#0c1422"/>
    </linearGradient>
    <linearGradient id="chip" x1="0" y1="0" x2="1" y2="1">
      <stop offset="0" stop-color="#ffb36b"/>
      <stop offset="1" stop-color="#f27d5f"/>
    </linearGradient>
  </defs>
  <rect width="1200" height="700" fill="url(#bg)"/>
  <rect x="90" y="90" width="1020" height="520" rx="26" fill="#f5efe0"/>
  <rect x="130" y="140" width="430" height="380" rx="18" fill="#192b3a"/>
  <rect x="640" y="140" width="430" height="380" rx="18" fill="#192b3a"/>
  <rect x="160" y="180" width="280" height="28" rx="10" fill="#ff7058"/>
  <rect x="160" y="230" width="320" height="18" rx="9" fill="#f4b4aa"/>
  <rect x="160" y="265" width="300" height="18" rx="9" fill="#f0c4bd"/>
  <rect x="160" y="300" width="260" height="18" rx="9" fill="#f7d5cf"/>
  <rect x="670" y="180" width="280" height="28" rx="10" fill="#2ad4b7"/>
  <rect x="670" y="230" width="330" height="18" rx="9" fill="#a7e6d9"/>
  <rect x="670" y="265" width="300" height="18" rx="9" fill="#c7f1e8"/>
  <rect x="670" y="300" width="260" height="18" rx="9" fill="#d6f6ef"/>
  <rect x="440" y="560" width="320" height="48" rx="16" fill="url(#chip)"/>
  <text x="170" y="205" font-family="Arial, sans-serif" font-size="18" fill="#ffe7e2">Flaky Selenium</text>
  <text x="680" y="205" font-family="Arial, sans-serif" font-size="18" fill="#e7f7f3">SeleniumCraft</text>
  <text x="470" y="592" font-family="Arial, sans-serif" font-size="18" fill="#1a0e08">75% Less Code</text>
</svg>
