<svg xmlns="http://www.w3.org/2000/svg" width="1200" height="700" viewBox="0 0 1200 700">
  <defs>
    <linearGradient id="bg" x1="0" y1="0" x2="1" y2="1">
      <stop offset="0" stop-color="#0b1a17"/>
      <stop offset="1" stop-color="#13302b"/>
    </linearGradient>
    <linearGradient id="card" x1="0" y1="0" x2="1" y2="1">
      <stop offset="0" stop-color="#f7f3e8"/>
      <stop offset="1" stop-color="#efe4c8"/>
    </linearGradient>
  </defs>
  <rect width="1200" height="700" fill="url(#bg)"/>
  <rect x="80" y="70" width="1040" height="560" rx="28" fill="url(#card)"/>
  <rect x="120" y="120" width="420" height="34" rx="10" fill="#1f2a44"/>
  <rect x="120" y="180" width="960" height="18" rx="9" fill="#d9caa4"/>
  <rect x="120" y="215" width="900" height="18" rx="9" fill="#e6d8b7"/>
  <rect x="120" y="250" width="760" height="18" rx="9" fill="#eedfc0"/>
  <rect x="120" y="300" width="420" height="220" rx="18" fill="#11222a"/>
  <rect x="570" y="300" width="510" height="220" rx="18" fill="#11222a"/>
  <rect x="150" y="330" width="360" height="24" rx="10" fill="#2ad4b7"/>
  <rect x="150" y="370" width="320" height="16" rx="8" fill="#9bd9cc"/>
  <rect x="150" y="400" width="280" height="16" rx="8" fill="#c4eadf"/>
  <rect x="600" y="330" width="360" height="24" rx="10" fill="#ff7058"/>
  <rect x="600" y="370" width="280" height="16" rx="8" fill="#f0a198"/>
  <rect x="600" y="400" width="310" height="16" rx="8" fill="#f3b5ad"/>
  <rect x="120" y="560" width="180" height="44" rx="12" fill="#1f2a44"/>
  <rect x="320" y="560" width="240" height="44" rx="12" fill="#2ad4b7"/>
  <text x="140" y="148" font-family="Arial, sans-serif" font-size="18" fill="#ffffff">ExtentReport | Run Summary</text>
  <text x="150" y="360" font-family="Arial, sans-serif" font-size="18" fill="#e7f7f3">SeleniumCraft</text>
  <text x="600" y="360" font-family="Arial, sans-serif" font-size="18" fill="#ffe7e2">Traditional Selenium</text>
  <text x="140" y="590" font-family="Arial, sans-serif" font-size="16" fill="#ffffff">Open Report</text>
  <text x="340" y="590" font-family="Arial, sans-serif" font-size="16" fill="#0b1a17">View Details</text>
</svg>
